<svg width="326" height="279" viewBox="0 0 326 279" fill="none" xmlns="http://www.w3.org/2000/svg">
<g filter="url(#filter0_d_4634_10077)">
<path d="M64.251 20.0376C64.251 8.99188 73.2053 0.0375671 84.251 0.0375671H303.938C314.983 0.0375671 323.938 8.99187 323.938 20.0376V204.258C323.938 215.022 315.419 223.855 304.662 224.245L84.9757 232.211C73.6533 232.622 64.251 223.554 64.251 212.224V20.0376Z"/>
</g>
<path d="M64.251 20.6138C64.251 9.34565 73.5553 0.301894 84.8189 0.621884L306.309 6.91421C317.2 7.22362 325.84 16.1943 325.74 27.0896L324.113 204.436C324.015 215.128 315.524 223.851 304.838 224.239L84.9757 232.211C73.6533 232.622 64.251 223.554 64.251 212.224V20.6138Z" fill="url(#paint0_linear_4634_10077)"/>
<defs>
<filter id="filter0_d_4634_10077" x="0.250977" y="0.0375671" width="323.687" height="278.187" filterUnits="userSpaceOnUse" color-interpolation-filters="sRGB">
<feFlood flood-opacity="0" result="BackgroundImageFix"/>
<feColorMatrix in="SourceAlpha" type="matrix" values="0 0 0 0 0 0 0 0 0 0 0 0 0 0 0 0 0 0 127 0" result="hardAlpha"/>
<feOffset dx="-44" dy="26"/>
<feGaussianBlur stdDeviation="10"/>
<feColorMatrix type="matrix" values="0 0 0 0 0.0235294 0 0 0 0 0.0117647 0 0 0 0 0.0705882 0 0 0 0.34 0"/>
<feBlend mode="normal" in2="BackgroundImageFix" result="effect1_dropShadow_4634_10077"/>
<feBlend mode="normal" in="SourceGraphic" in2="effect1_dropShadow_4634_10077" result="shape"/>
</filter>
<linearGradient id="paint0_linear_4634_10077" x1="409.674" y1="12.9228" x2="74.6583" y2="224.537" gradientUnits="userSpaceOnUse">
<stop offset="0.236167" stop-color="white" stop-opacity="0.22"/>
<stop offset="0.447514" stop-color="white" stop-opacity="0.03"/>
<stop offset="0.494392" stop-color="white" stop-opacity="0.06"/>
<stop offset="0.546479" stop-color="white" stop-opacity="0"/>
</linearGradient>
</defs>
</svg>
